<svg xmlns="http://www.w3.org/2000/svg" viewBox="0 0 409 375"  xmlns:v="https://vecta.io/nano"><style><![CDATA[.S{fill:#222221}.T{fill:#142a3d}.U{fill:#568dc3}.V{fill:#122635}]]></style><path d="M350.3 357.1c0 4.5-60.5 8.1-135.1 8.1s-135.1-3.6-135.1-8.1 60.5-8.1 135.1-8.1 135.1 3.6 135.1 8.1z" opacity=".5" fill="#011627" enable-background="new"/><path d="M229 347.9c-6 6.2-15.6 6.6-24.1 6.4-45.6-1.3-90.8-11.9-132.2-30.9-17-7.8-34.2-17.9-43.2-34.2-16.6-30.1.5-67.7-4.6-101.8-2.4-16.1-9.9-31-13.3-46.9-5.4-25.6 1.5-55.1 22.3-70.8 10.7-8.1 23.9-11.9 35.6-18.4 14.7-8.1 26.7-20.2 41.1-28.7 11.8-7 25.1-11.6 38.7-13.3 11.8-1.5 24.9-.5 34.1 7.1C190 21.8 193.8 30 200 35.9c9.3 8.9 22.7 11.7 35.4 13.6 34.3 5 70.3 5.8 101.2 21.6 11.1 5.7 22.1 14.4 24.4 26.7 2.1 11.6-4.1 23.3-3.6 35.1.8 19 17.8 32.5 28.2 48.5 13.3 20.5 15.4 48.6 3 69.7-5.7 9.7-14.1 17.6-19.8 27.3-6 10.1-9 21.9-15.8 31.5-15.1 21.4-44.1 26.7-70.1 30.2l-54 7.3" fill="#753dda"/><path d="M187.2 101.7l7.5-15c-6.9-6-10.7-13.5-10.7-21.3 0-18.3 20.6-33.2 46-33.2s46 14.9 46 33.2-20.6 33.2-46 33.2c-8.5 0-16.8-1.7-24-4.9l-18.8 8zm42.7-68.2c-24.7 0-44.8 14.4-44.8 32 0 7.6 3.8 14.9 10.6 20.7l.4.3-6.5 13 16.3-6.9.2.1c7.1 3.2 15.3 4.9 23.8 4.9 24.7 0 44.8-14.4 44.8-32s-20-32.1-44.8-32.1z" fill="#96c0e0"/><path d="M206.1 59.2h43.2c1 0 1-1.5 0-1.5h-43.2c-.9.1-.9 1.5 0 1.5h0zm0 17.8h43.2c1 0 1-1.5 0-1.5h-43.2c-.9 0-.9 1.5 0 1.5h0zm10.2-12h33.8c1 0 1-1.5 0-1.5h-33.8c-1 0-1 1.5 0 1.5h0zm0 4.8h33.8c1 0 1-1.5 0-1.5h-33.8c-1 0-1 1.5 0 1.5h0z" fill="#699ccc"/><path d="M324.5 183.8c-2-5.6-.3-12 3.4-16.7 3.3-4.2 8.4-7.3 13.7-7.4 5.4-.1 10.9 3.3 12.5 8.4 1.2 3.8.1 8.1-2.3 11.3s-6.1 5.2-10 6.2c-5.7 1.3-11.9.3-16.8-2.8" class="U"/><g class="S"><path d="M318.1 195.7c3.9-13.2 15.2-21.6 27.2-27.3.2-.1 0-.4-.2-.3-12 5.7-23.3 14.2-27.3 27.5-.1.3.2.4.3.1h0z"/><path d="M332.4 169l-1.3 7.7c0 .1 0 .2.1.2l6.2 1.3c.2 0 .3-.3.1-.3l-3.1-.6c-1.1-.2-2.7-.2-2.7-1.6-.1-1 .4-2.2.6-3.1l.5-3.5c-.1-.2-.4-.3-.4-.1h0zm8.6-3.6l-1 3.3c-.2.5-.7 1.6-.6 2.2.1.4.5.5.9.6l3.3.8c.2.1.3-.3.1-.3l-2.1-.5c-.4-.1-.8-.1-1.2-.3-.7-.3-.6-.5-.4-1.1l1.3-4.5c.1-.3-.2-.4-.3-.2h0z"/></g><path d="M328.1 146.2c-1.9-1.4-2.7-3.8-3.1-6.1-.9-5.9.7-12.2 4.2-17.1 3.6-4.8 9.1-8.1 15.1-9 1.9-.3 3.8-.3 5.6.2 1.9.6 3.5 1.7 4.9 3.1 4.3 4.4 5.8 11.4 3.9 17.3-1.8 5.9-6.8 10.7-12.6 12.8-5.9 2.1-12.5 1.6-18.2-1" class="U"/><g class="S"><path d="M315 198.2c5.3-13 1.4-27.5 6.4-40.6 2.6-6.8 6.7-12.8 12-17.8 2.6-2.4 5.4-4.6 7.7-7.3 2.1-2.5 3.9-5.3 5.7-8 .1-.2-.2-.4-.3-.2-2.1 3.2-4.1 6.5-6.8 9.3-2.5 2.7-5.6 4.9-8.2 7.6-4.3 4.4-7.8 9.6-10.1 15.3-5.4 13.4-1.3 28.3-6.8 41.6 0 .2.3.3.4.1h0z"/><path d="M341 125.1l.4 4.5c0 .5-.1 1.6.4 1.8.7.3 2.2-.6 2.9-.8 1.3-.5 2.5-1 3.8-1.7.2-.1 0-.4-.2-.3a30.9 30.9 0 0 1-3.2 1.4c-.7.3-2 1-2.7.9-.9-.1-.7-2-.8-2.8l-.3-3.2s-.3 0-.3.2h0zm-7.3 5.8l.4 4.9c0 .6-.1 2.5.3 2.9.5.4 1.3.1 1.9 0l4.8-.6c.2 0 .2-.4 0-.3l-3.3.4c-.5.1-1 .1-1.5.2-.9.1-1.3.4-1.7-.8-.3-.9-.2-2.1-.3-3.1l-.3-3.7c.1-.1-.3-.1-.3.1h0z"/></g><path d="M305.8 178.5c.7-.4.6-1.4.3-2.1-1.6-5.6-6.4-10-12-11.5s-11.8-.3-16.6 3c-1.3.9-2.6 2-3.6 3.3s-1.7 2.9-2.3 4.4c-.8 2.3-1.2 4.7-.8 7.1.7 4.3 4.2 7.8 8.3 9.2 4.1 1.5 8.7 1.1 12.7-.4 6.2-2.3 11.4-7 14.2-12.9" class="U"/><g class="S"><path d="M316.5 198.5c-1.4-1.9-2.8-3.9-3.9-6-1.2-2.5-1.5-5.1-2.4-7.7a15.14 15.14 0 0 0-5.6-7.1c-6.3-4.3-14.3-3.3-20.3 1-.2.1 0 .4.2.3 6.6-4.8 16.1-5.4 22.1.8 2.8 2.9 3.5 6.3 4.6 10 1 3.3 3 6.1 5 8.8.1.3.4.1.3-.1h0z"/><path d="M283.8 174.3l2.1.6c.7.2 2 .5 2.6 1 .9.8.2 1.8-.3 2.6l-1.2 2.2c-.1.2.2.4.3.2.6-1.2 1.5-2.3 2-3.6.2-.4.3-.7.1-1.1-.3-.6-1.2-.8-1.8-1.1a25.33 25.33 0 0 0-3.6-1.2c-.3 0-.4.4-.2.4h0zm10.3-2c1 .7 3.5 1.8 2.9 3.3-.2.5-.9 1.1-1.3 1.5l-1.3 1.5c-.1.2.1.4.2.2l2.2-2.7c.3-.3 1-.9.9-1.5 0-.4-.6-.7-.8-.9l-2.7-1.9c-.1.1-.3.4-.1.5h0z"/></g><path d="M312.1 161c4.6-4.7 5.7-12.6 2.6-18.4s-10.3-9.2-16.8-8c-1.1.2-2.1.5-3.1 1.1-.9.6-1.7 1.4-2.4 2.3-4.1 5.5-3.9 13.8.6 19.1 4.4 5.2 12.6 6.9 18.7 3.7" class="U"/><g class="S"><path d="M319.5 202.2c-.2-2.6-1.3-4.9-2.2-7.4-1-3.1-.8-6-.7-9.2.2-5.2-.3-10.3-1.5-15.4-2.5-10.1-7.7-19.3-15.1-26.6-.2-.2-.4.1-.2.2 7.6 7.5 12.9 17.1 15.3 27.5 1.1 5.1 1.4 10.2 1.2 15.4-.1 2.4-.2 4.7.4 7 .8 2.8 2.2 5.3 2.5 8.3 0 .4.3.4.3.2h0z"/><path d="M303.9 143.9c.2 1.6.2 3.2-.1 4.9.1 0 .2-.1.3-.1-1.7-.7-3.4-1.1-5.3-1.2-.2 0-.2.3 0 .3 1.8 0 3.5.4 5.1 1.1.1 0 .2 0 .3-.1.3-1.7.3-3.3.1-4.9 0-.2-.4-.2-.4 0h0zm5.6 4.7l-.5 2.5-.3 1.4c-.2.7 0 1.1-.8 1.3-1.5.5-3.8-.2-5.3-.4-.2 0-.3.3-.1.3l3.7.5c.6.1 1.8.5 2.4.1.4-.3.4-1 .5-1.5l.9-4.2c-.2-.1-.5-.2-.5 0h0z"/></g><g fill="#ff826a"><path d="M323.7 153.8c-.3.2-.6.3-.9.5-2.2.2-4.4-.6-5.9-2.2s-2.1-3.9-1.8-6c.2-1.1.7-2.1 1.5-2.9 1.5-1.4 4-1.4 5.9-.4.7.4 1.4.9 1.9 1.6s.7 1.6.8 2.5c.3 2.6-.1 5.2-1.3 7.5"/><path d="M323.5 154.7c-.8 2.4-.7 5 .3 7.4.5 1.1 1.2 2.2 2.3 2.8.7.4 1.6.5 2.4.4 3.1-.2 5.8-3.3 5.5-6.4 0-.6-.2-1.2-.5-1.7-.3-.7-.9-1.2-1.4-1.7-1.3-1.1-2.8-2-4.5-2.3-1.7-.2-3.6.3-4.6 1.7"/><path d="M323.7 154.3c.3-2.6 1.5-5.1 3.5-6.8.4-.3.8-.7 1.3-.8.5-.2 1.1-.2 1.7-.1.7 0 1.4.1 2 .5 1.2.8 1.3 2.5.6 3.7s-2 1.9-3.3 2.3c-1.7.5-3.5.7-5.2.5"/><path d="M322.2 154.5c-1-.8-2.4-.8-3.5-.4-1.2.4-2.1 1.3-2.9 2.2s-1.4 2-1.6 3.2.3 2.5 1.2 3.2c1.3.9 3.1.4 4.4-.5 2.8-1.9 4.4-5.3 4-8.6"/></g><path d="M326.2 152.1c-2.1-2.3-5.1 0-5.5 1.4-.4 1.5.7 3.1 2.2 3.4s3.1-.7 3.7-2.1c.5-.9.5-2.2-.4-2.7m-3.6 41.5c-.4-.4-.9-.6-1.4-.6H310c-.5 0-1.1.2-1.4.6-2.7 3-13.1 16.3 0 28.6.4.3.8.5 1.3.5h11.3c.5 0 1-.2 1.3-.5 13.2-12.3 2.8-25.6.1-28.6z" class="T"/><path d="M100.7 164.2c-1.8-3.1-6.4-3.7-9.6-2.1s-5.3 4.9-6.8 8.2c-7.1 15.7-4 34 .9 50.4 4.6 15.7 11.1 31.7 23.4 42.6 9.7 8.6 22.5 13.4 35.4 14.9s26.4 1.4 38.7-2.7c9.9-3.3 15.3-10.6 16.7-14"/><g class="S"><path d="M149.3 275.2c.6 22.3.3 44.6-1 66.9-.2 2.8 4.2 2.8 4.4 0 1.3-22.3 1.6-44.6 1-66.9-.1-2.8-4.5-2.8-4.4 0h0z"/><path d="M114.9 356.2c11.5-6.3 23.5-12.7 36.9-12.1 13.2.6 25.4 6.9 36.8 13 2.5 1.3 4.7-2.4 2.2-3.8-12.1-6.5-25-13-39-13.6-14.2-.7-27 6-39.1 12.6-2.5 1.4-.3 5.2 2.2 3.9h0z"/><path d="M133.5 359.1c2.2-2.8 4.5-5.5 7.1-7.9 2-1.9 5.6-5.9 8.4-6.6 5.8-1.4 11.8 10.7 13.3 14.9.9 2.6 5.2 1.5 4.2-1.2-1.5-4.2-3.5-8-6.4-11.4-2.2-2.6-6-7-9.7-7.2-3.4-.2-6.9 3.3-9.4 5.3-4.3 3.5-8 7.5-11.3 11.9-1.7 2.3 2.1 4.4 3.8 2.2h0z"/></g><path d="M201.9 324.2l-3.8 8.8c-.1.3-.3.7-.2 1.1.1.7.9 1 1.5 1.3 4.5 1.7 9 3.2 13.5 4.8l5.1 1.8c-2.6-4.3-5.4-9-4.8-14m56.8-1.7c1.1 2.7 1.6 5.7 1.6 8.6 0 .3 0 .6.2.8.2.1.4.1.6.1l18.4-1.4c4.4-.3 9.4-1 11.8-4.7-4.5 1.1-9.1-.4-13.4-2.1-3-1.2-6.4-3-7.1-6.2" fill="#ffcab6"/><path d="M216.4 258.8c2.4-1 5 1.3 5.4 3.9.4 2.5-.7 5-1.7 7.3-7.9 17.5-14.6 35.5-20 54-.2.8-.4 1.7 0 2.4.4.6 1.1.8 1.8 1l10.9 3c.7.2 1.4.4 2.1.1.7-.2 1.1-.8 1.5-1.4 17-22.7 29.6-48.6 37.1-76 .6-2.2 1.2-4.5.7-6.7-1-4.9-6.4-7.4-11.3-8.8-22.3-6.4-45.9-4.9-69-6.6-1.8-.1-3.6-.3-5.2-1.1s-2.9-2.5-2.8-4.2l-31.1 1.1 6.5 15.3" fill="#0e1e28"/><path d="M111 227.4c.1 10.3 5 18.9 10.2 25.6 1.9 2.5 3.8 4.4 6.5 6 9.3 5.6 18.3 6.6 29.2 6.7 17.5.2 35.2-1.8 52.6.1 3.5.4 7.1.9 10.1 2.7 3.5 2 6 5.4 8.4 8.7 12.5 17.4 24.3 35.4 39.6 50.3.6.5 1.1 1.1 1.9 1.3 1.1.3 2.3-.1 3.4-.6l6.2-2.6c1.6-.7 3.4-1.6 3.8-3.3.3-1.3-.4-2.6-1-3.8l-7.3-13.1-24.4-43.2c-2.2-3.8-4.3-7.7-7.3-10.9-7.9-8.5-20.1-11.3-31.7-13-14.1-2-27.1-5.8-41.3-5.5-1.2 0-2-.3-3.7-1.4-.7-.4-1.8-1.6-1.8-2.4.1-2.4.7-1.5.8-3.9" class="V"/><path d="M271.1 331.8c-2.2 4.2-1.3 10.1-.3 14.8.4 1.8 1.1 3.8 2.8 4.5 1.5.6 3.1.1 4.7-.3 14.9-4.1 31.8-.2 45.4-7.6 1.3-.7 2.5-1.5 3.2-2.8 1.4-2.6-.1-6-2.6-7.6s-5.5-1.9-8.5-2.1l-20.3-1.5c-1.8-.1-4.6-1.9-6.4-1.7-1.9.3-2.8 2.6-4.6 3.1-4.3 1.4-8.9 1.7-13.4 1.2" class="T"/><g fill="#fff"><path d="M289.7 329c0-1.3.2-2.4.8-3.6.2-.5 1.7-2.9 2.4-2.8l.8 1.8c-.1.2-.2.5-.4.7-.3.5-.6 1-1 1.4-.8.9-1.8 1.6-2.9 2.2-.5.2-.3 1 .1 1.1l6.6 1.6c.7.2 1.1-1 .3-1.1l-6.6-1.6c0 .4.1.7.1 1.1 1.9-1 3.5-2.4 4.5-4.2.7-1.3 1.3-3.5-.5-4.2-1.4-.6-3 1.2-3.7 2.2-1.2 1.6-1.8 3.5-1.8 5.4.2.7 1.3.8 1.3 0h0z"/><path d="M289.6 328.7c-2.5-2-5.6.9-5.4 3.6.1.9.8 2.4 2 2 .6-.2 1-1.1 1.4-1.6l1.9-2.7-1.1-.3c.2 1.9.9 3.6 2.1 5.1.5.6 1.3-.3.8-.8-1-1.2-1.6-2.7-1.8-4.3 0-.6-.8-.8-1.1-.3l-1.2 1.8c-.3.4-1.3 2.2-1.7 1.2-.7-1.6 1.8-4.1 3.3-2.9.5.6 1.4-.3.8-.8h0zm8.2 3.9s-.1 0 0 0c.1.2.2.4.4.6v-.1c-.1.2-.3.4-.4.6h.1c.7-.2.4-1.4-.3-1.1h-.1c-.3.1-.4.3-.4.6v.1c0 .3.2.5.4.6h.1c.6.1.9-1 .2-1.3h0zm5.2.9v.2c0 .8 1.2.8 1.2 0v-.2c0-.7-1.2-.7-1.2 0h0zm7.5-.7c-.2.1-.3.1-.5.2-.7.2-.4 1.4.3 1.1.2-.1.3-.1.5-.2.8-.2.4-1.3-.3-1.1h0z"/></g><path d="M197.1 332.1c-3.4 3.3-4.5 9.2-5.1 13.9-.2 1.8-.2 4 1.2 5.2 1.2 1.1 2.9 1.1 4.5 1.2 15.4 1 30.2 10.1 45.4 7.5 1.4-.2 2.9-.6 4-1.6 2.2-2 1.8-5.7 0-8s-4.6-3.5-7.3-4.7l-18.8-8c-1.7-.7-3.7-3.3-5.5-3.7s-3.4 1.6-5.3 1.5c-4.5-.2-9-1.3-13.1-3.3" class="T"/><g fill="#fff"><path d="M214.4 335c.4-1.2.9-2.3 1.8-3.2.4-.4 2.5-2.3 3.1-1.9l.2 2-.6.6c-.4.4-.9.7-1.4 1-1.1.6-2.2 1-3.4 1.2-.5.1-.6.8-.2 1.1l5.8 3.4c.7.4 1.3-.6.6-1l-5.8-3.4c-.1.4-.1.7-.2 1.1 2.1-.4 4-1.2 5.5-2.7 1.1-1 2.3-2.9.8-4.1-1.2-1-3.2.3-4.2 1-1.6 1.2-2.7 2.8-3.3 4.7-.1.6 1.1.9 1.3.2h0z"/><path d="M214.3 334.7c-1.8-2.6-5.6-.8-6.2 1.9-.2.9 0 2.5 1.3 2.5.7 0 1.3-.7 1.8-1.1l2.6-2-1-.6c-.4 1.9-.2 3.7.5 5.5.3.7 1.3.1 1-.6-.6-1.5-.8-3.1-.4-4.6.1-.6-.5-1-1-.6-.6.4-1.1.9-1.7 1.3-.4.3-1.9 1.8-2 .6-.2-1.7 2.9-3.3 4-1.8.5.7 1.5.2 1.1-.5h0zm6.7 6.2c0-.1 0-.1 0 0 0 .2.1.4.2.6v-.1c-.2.1-.4.3-.6.4h.1c.8 0 .8-1.2 0-1.2h-.1c-.3 0-.5.2-.6.4v.1c-.1.3 0 .5.2.7h0c.8.5 1.4-.5.8-.9h0zm4.7 2.4v.1c-.2.7.9 1.1 1.1.3v-.1c.3-.7-.8-1.1-1.1-.3h0zm7.4 1.5h-.5c-.8 0-.8 1.2 0 1.2h.5c.7 0 .8-1.2 0-1.2h0z"/></g><path d="M127.7 121.6c1.2 6.2.3 12.8-2.4 18.5-.3.6-.6 1.2-.5 1.8.1.4.3.8.6 1.2 5.2 7.5 14.1 12.3 23.3 12.5-.1-3.3 2.5-7.2.5-9.8-2.6-3.3-1.7-7.3-.2-10.6" fill="#e5afa1"/><path d="M186.8 223.4s3.6-9.5 12.2-7.5 11.3 6.8 11.3 6.8" class="T"/><path d="M125.1 140.5c3 3.6 6.2 5.5 10.8 6.6s5.9 1.2 10.7-.2c1.7-.5 1.1-.3 2.7-.9 2-.7 8.4-.7 10.4-.3 5.6 1.4 11.2 5 12.4 10.6.6 3-.2 6.2-.8 9.2-4.2 18.8-4.4 38.3-2.8 57.4.2 2.4.5 4.8.4 7.2-18.5-2.7-37.2 14-55.9 12.4-.6-.1-1.5-13.6-1.8-14.1-.3-.3-.3-.8-.3-1.2-.7-11.9-1-23.9-.8-35.9.1-4.3.2-8.8 1.9-12.8 2.8-.3 5.6-.4 8.4-.3-1.6-10.2-7.3-19.8-15.5-26.1-.3-.3-.7-.6-.6-1a1.38 1.38 0 0 1 .3-.4c5.7-5.1 12.8-8.9 20.5-10.2" fill="#74a6d1"/><path d="M155.8 158c-2.3-5.3-4.7-11.4-2.5-16.8 1.7-4.3 6.1-7.3 7.4-11.9.5-2 .4-4.1-.3-6-.3-.8-.8-1.6-.8-2.5s.6-1.8 1.4-1.9c.6 0 1.2.5 1.6 1 3.4 4.1 3.9 9.8 3.9 15.2 0 2-.1 4-.9 5.8-.7 1.5-1.8 2.8-2.5 4.2-1.4 2.7-1.4 6.1-.1 8.8" fill="#f7c1b0"/><path d="M116.4 162.1s5.1 7.7 9.5 21.5 21.9 21.2 37.9 18 6 17.5 6 17.5l-43.6-6.5" fill="#6193bc"/><g fill="#699ccc"><path d="M155.1 157.9c.9 12 1.8 24.1 4.9 35.7s8.6 22.7 17.1 30.1c.8.7 1.6 1.3 2.5 1.3 1.6 0 2.7-1.7 3.3-3.3 1.4-3.7 1.5-7.9 1.4-12-1-21.6-10.8-41.5-20.5-60.4-2.6 2.9-5.5 5.5-8.6 7.7"/><path d="M104.3 151.3c3.4 1.2 8.9 5.4 10.8 8.5s3.1 6.5 4.2 9.9c3.1 9.6 5.7 19.4 7.6 29.4.7 3.4 1.6 7.3 4.6 9.1 1.5.9 3.3 1.1 5 1.3 13.4 1.6 26.7 3.5 39.9 5.8.7.1 1.4.3 1.7.9.1.3.1.7 0 1.1l-1 5.5c-.2 1.2-.6 2.6-1.6 3.3-.8.5-1.7.4-2.6.4l-46.2-3.2c-1.4-.1-2.9-.2-4.1-.9-1-.6-1.8-1.5-2.5-2.4-10.1-13.1-17.2-28.5-20.6-44.6-1.1-5.4-1.8-11-.4-16.3.8-2.9 2.7-6.2 5.2-7.8"/></g><path d="M177 217.1c3.4.5 6.3-2.2 9.4-3.8 3.5-1.8 7.6-2.1 11.3-1.2 3.8.9 7.2 3.1 9.9 5.9.8.8 1.6 2.2.8 3.1-2.2-1.3-4.4-2.6-6.8-3.3s-5.1-.9-7.4.2c-2.8 1.2-4.7 4-7.3 5.5-3 1.8-7.1 1.9-10.2.2" fill="#ffba94"/><path d="M132 106.3l-.6 4.2c-.4 2.7-.8 5.4-.7 8.1.4 8.3 5.8 15.7 12.7 20.3 1.5 1 3.1 1.9 4.9 2.3s3.7.2 5.2-.8c.8-.5 1.4-1.3 2-2.1 3.2-4.2 5.4-9.2 6.3-14.4.4-2.1.5-4.2.7-6.3.1-1.6.3-3.2.4-4.8.4-5.2.8-10.8-1.7-15.4-1.8-3.4-5.1-6-8.8-6.9" fill="#ffcab6"/><path d="M148.5 128.9l9 .3c-.1 0-3.6 6.5-9-.3z" fill="#fff"/><path d="M132.1 123.5c.8-2.4 1-4.9 1.5-7.3s1.4-4.9 3.2-6.7c2-2 5-2.8 7.8-3s5.7.2 8.5.2c8.5 0 17.2-4 21.9-11.1 1.3-1.9 2.3-4.1 2.2-6.4-2.6 1.6-5.8 2.3-8.9 1.9 1.2-.9 2-2.3 2.1-3.8-3.7 1.2-7.7 1.6-11.5 1.1.4-.3.6-.8.8-1.2-2.4 1-5.1.5-7.6.2-5.3-.6-10.6-.6-15.9.2-2 .3-3.9.7-5.8 1.5-4 1.8-7 5.6-8.7 9.7-4.2 9.8-1.8 20.9 5.8 28.4" class="T"/><path d="M129.3 122.8c.8 3.3 4.5 5.4 7.2 7.2 3.4 2.3 7.1 3.9 11.2 4.5.8.1.7-1.1 0-1.2-3.5-.5-6.8-1.9-9.8-3.8-2.6-1.7-6.7-3.9-7.5-7.1-.1-.6-1.3-.3-1.1.4h0z" class="S"/><path d="M150.9 134.8c-.3 1.2-1.5 2-2.7 1.7s-2-1.5-1.7-2.7 1.5-2 2.7-1.7 1.9 1.5 1.7 2.7z" class="V"/><path d="M147.4 86.3c-.2-.4-1-.6-1.6-.7-7.3-.9-12.3 5.1-14.1 8.1-3.8 6.2-6 13.2-6.3 19.2 0 1 .7 1.7 1.7 1.8h.1c1 0 1.7-.7 1.8-1.7h0c.2-4.8 1.8-10.2 4.9-16 1.9-3.5 5.7-9 11.4-9.8.6-.1 1.7.1 2-.1.2-.1.3-.4.1-.8z" fill="#6193bc"/><circle cx="125.6" cy="119.5" r="9.5" class="V"/><circle cx="124.8" cy="119" r="4" fill="#74a6d1"/><path d="M263 209.7h-93.1c-1.4 0-2.5-1.1-2.5-2.5v-62.4c0-1.4 1.1-2.5 2.5-2.5H263c1.4 0 2.5 1.1 2.5 2.5v62.4c0 1.4-1.1 2.5-2.5 2.5z" class="T"/><path d="M206.1 170h19.1v39.7h-19.1z" fill="#0e1e28"/><path d="M206.1 170h21.1l25.7 56.4h-25.5z" class="V"/><path d="M337.8 233.7H45.2c-2.5 0-4.6-2-4.6-4.6v-1.8c0-2.5 2-4.6 4.6-4.6h292.6c2.5 0 4.6 2 4.6 4.6v1.8c-.1 2.6-2.1 4.6-4.6 4.6z" fill="#fff100"/></svg>