<!DOCTYPE svg PUBLIC "-//W3C//DTD SVG 1.1//EN" "http://www.w3.org/Graphics/SVG/1.1/DTD/svg11.dtd">
<!-- Uploaded to: SVG Repo, www.svgrepo.com, Transformed by: SVG Repo Mixer Tools -->
<svg fill="#ffffff" width="800px" height="800px" viewBox="0 0 24 24" xmlns="http://www.w3.org/2000/svg">
<g id="SVGRepo_bgCarrier" stroke-width="0"/>
<g id="SVGRepo_tracerCarrier" stroke-linecap="round" stroke-linejoin="round"/>
<g id="SVGRepo_iconCarrier">
<path d="M19,7H18V6a3,3,0,0,0-3-3H5A3,3,0,0,0,2,6H2V18a3,3,0,0,0,3,3H19a3,3,0,0,0,3-3V10A3,3,0,0,0,19,7ZM5,5H15a1,1,0,0,1,1,1V7H5A1,1,0,0,1,5,5ZM20,15H19a1,1,0,0,1,0-2h1Zm0-4H19a3,3,0,0,0,0,6h1v1a1,1,0,0,1-1,1H5a1,1,0,0,1-1-1V8.83A3,3,0,0,0,5,9H19a1,1,0,0,1,1,1Z"/>
</g>
</svg>